<?xml version="1.0" standalone="no"?>
<!DOCTYPE svg PUBLIC "-//W3C//DTD SVG 20010904//EN"
 "http://www.w3.org/TR/2001/REC-SVG-20010904/DTD/svg10.dtd">
<svg version="1.0" xmlns="http://www.w3.org/2000/svg"
 width="908.000000pt" height="174.000000pt" viewBox="0 0 908.000000 174.000000"
 preserveAspectRatio="xMidYMid meet">

<g transform="translate(0.000000,174.000000) scale(0.100000,-0.100000)"
fill="#000000" stroke="none">
<path d="M2953 1201 c-51 -20 -63 -31 -36 -31 27 0 33 -18 33 -90 l0 -59 -27
15 c-54 28 -112 15 -159 -35 -72 -76 -72 -214 -1 -280 37 -34 106 -40 152 -13
l35 21 0 -20 c0 -22 8 -21 78 8 l35 15 -24 12 -24 12 -3 232 c-1 128 -6 232
-10 231 -4 -1 -26 -9 -49 -18z m-32 -200 c28 -28 29 -33 29 -126 0 -109 -8
-131 -50 -140 -69 -15 -120 47 -120 148 0 63 17 107 52 131 33 23 56 20 89
-13z"/>
<path d="M3613 1201 c-51 -20 -63 -31 -36 -31 27 0 33 -18 33 -90 l0 -59 -27
15 c-54 28 -112 15 -159 -35 -72 -76 -72 -214 -1 -280 37 -34 106 -40 152 -13
l35 21 0 -20 c0 -22 8 -21 78 8 l35 15 -24 12 -24 12 -3 232 c-1 128 -6 232
-10 231 -4 -1 -26 -9 -49 -18z m-32 -200 c28 -28 29 -33 29 -126 0 -109 -8
-131 -50 -140 -69 -15 -120 47 -120 148 0 63 17 107 52 131 33 23 56 20 89
-13z"/>
<path d="M4805 1210 c-16 -4 -43 -11 -60 -16 l-30 -7 30 -6 30 -6 3 -222 2
-223 -32 -14 c-32 -14 -28 -14 67 -15 95 0 98 1 68 14 l-33 14 0 246 c0 135
-3 245 -7 244 -5 0 -21 -4 -38 -9z"/>
<path d="M350 1191 c0 -5 14 -14 30 -20 l30 -10 0 -211 0 -212 -30 -11 c-16
-6 -30 -15 -30 -19 0 -4 47 -8 105 -8 100 0 134 10 80 24 -35 9 -45 41 -45
142 l0 84 68 0 c93 0 112 -7 119 -41 3 -16 11 -29 17 -29 7 0 11 29 12 85 1
65 -2 85 -13 85 -7 0 -13 -9 -13 -19 0 -35 -38 -51 -117 -51 l-73 0 0 79 c0
112 -1 111 85 111 108 0 136 -8 149 -42 16 -43 40 -37 32 10 -3 20 -6 43 -6
50 0 9 -47 12 -200 12 -112 0 -200 -4 -200 -9z"/>
<path d="M1823 1073 c-29 -30 -53 -57 -53 -59 0 -2 9 -4 19 -4 18 0 20 -10 23
-139 3 -120 6 -142 22 -160 11 -12 30 -21 43 -21 31 0 79 25 86 45 8 18 5 18
-27 4 -48 -22 -56 -2 -56 142 l0 129 40 0 c29 0 40 4 40 15 0 11 -11 15 -39
15 l-40 0 -3 44 -3 44 -52 -55z"/>
<path d="M803 1028 c-29 -11 -50 -24 -48 -29 3 -4 12 -6 20 -3 7 3 18 -3 24
-15 12 -22 15 -230 3 -246 -4 -6 -18 -16 -32 -22 -21 -10 -8 -12 75 -11 73 0
92 2 71 8 -16 5 -33 15 -37 22 -5 7 -9 59 -9 115 0 94 2 104 24 130 22 25 27
26 45 16 29 -18 49 -16 60 5 13 25 -5 52 -34 52 -13 0 -40 -14 -60 -31 l-35
-31 0 31 c0 36 2 35 -67 9z"/>
<path d="M1108 1030 c-56 -30 -83 -82 -83 -160 0 -50 5 -73 22 -100 28 -46 89
-80 142 -80 136 0 217 169 138 289 -46 69 -142 91 -219 51z m105 -11 c43 -20
71 -85 71 -165 0 -101 -39 -153 -104 -139 -89 19 -122 256 -42 299 33 18 44
19 75 5z"/>
<path d="M1441 1036 c-50 -13 -65 -33 -29 -38 23 -3 23 -6 26 -135 l3 -132
-28 -15 c-27 -14 -24 -15 62 -15 72 1 85 3 63 11 l-28 10 0 123 c0 122 0 124
26 144 31 25 53 26 80 7 16 -12 20 -29 22 -111 5 -121 -2 -159 -31 -173 -18
-8 -5 -11 63 -11 68 0 81 2 65 11 -33 18 -35 28 -35 153 0 120 -8 152 -44 177
-22 15 -72 7 -108 -17 -20 -14 -39 -25 -42 -25 -4 0 -6 11 -6 25 0 28 2 28
-59 11z"/>
<path d="M2085 1038 c-64 -35 -95 -92 -95 -175 0 -96 45 -160 118 -170 53 -7
84 1 122 33 31 27 66 82 57 91 -3 2 -20 -12 -39 -32 -44 -48 -99 -58 -142 -24
-33 26 -56 75 -56 119 l0 30 115 0 c85 0 115 3 115 13 -1 32 -41 97 -69 111
-35 18 -97 20 -126 4z m83 -35 c11 -10 23 -28 27 -40 6 -22 4 -23 -69 -23 -85
0 -96 11 -51 55 28 29 65 32 93 8z"/>
<path d="M2366 1036 c-46 -14 -58 -33 -24 -38 23 -3 23 -6 26 -135 l3 -132
-28 -15 c-27 -14 -24 -15 62 -15 72 1 85 3 63 11 l-28 10 0 123 c0 122 0 124
26 144 31 25 53 26 80 7 16 -12 20 -29 22 -111 5 -121 -2 -159 -31 -173 -18
-8 -5 -11 63 -11 68 0 81 2 65 11 -33 18 -35 28 -35 155 0 116 -1 123 -26 152
-34 41 -77 41 -132 1 l-42 -30 0 30 c0 33 -5 34 -64 16z"/>
<path d="M3845 1038 c-64 -35 -95 -92 -95 -175 0 -96 45 -160 118 -170 53 -7
84 1 122 33 31 27 66 82 57 91 -3 2 -20 -12 -39 -32 -44 -48 -99 -58 -142 -24
-33 26 -56 75 -56 119 l0 30 115 0 c85 0 115 3 115 13 -1 32 -41 97 -69 111
-35 18 -97 20 -126 4z m83 -35 c11 -10 23 -28 27 -40 6 -22 4 -23 -69 -23 -85
0 -96 11 -51 55 28 29 65 32 93 8z"/>
<path d="M4495 1036 c-64 -29 -95 -84 -95 -172 0 -97 44 -161 118 -171 53 -7
84 1 122 33 31 27 66 82 57 91 -3 2 -20 -12 -39 -32 -44 -48 -99 -58 -142 -24
-33 26 -56 75 -56 119 l0 30 115 0 c128 0 126 -1 96 67 -31 66 -104 91 -176
59z m83 -33 c11 -10 23 -28 27 -40 6 -22 4 -23 -69 -23 -85 0 -96 11 -51 55
28 29 65 32 93 8z"/>
<path d="M5028 1030 c-56 -30 -83 -82 -83 -160 0 -50 5 -73 22 -100 28 -46 89
-80 142 -80 136 0 217 169 138 289 -46 69 -142 91 -219 51z m105 -11 c43 -20
71 -85 71 -165 0 -101 -39 -153 -104 -139 -89 19 -122 256 -42 299 33 18 44
19 75 5z"/>
<path d="M5363 1031 c-51 -20 -63 -31 -36 -31 13 0 23 -8 27 -22 8 -30 8 -356
0 -386 -4 -12 -17 -25 -30 -28 -52 -13 -19 -24 71 -24 57 0 95 4 95 10 0 6 -9
10 -19 10 -37 0 -51 27 -51 96 l0 65 22 -15 c75 -53 185 19 210 136 31 150
-84 258 -195 183 l-37 -26 0 26 c0 29 -1 29 -57 6z m176 -47 c94 -66 47 -285
-56 -259 -56 13 -63 29 -63 135 0 80 3 100 18 112 35 31 68 35 101 12z"/>
<path d="M5795 1036 c-64 -29 -95 -84 -95 -172 0 -97 44 -161 118 -171 53 -7
84 1 122 33 31 27 66 82 57 91 -3 2 -20 -12 -39 -32 -44 -48 -99 -58 -142 -24
-33 26 -56 75 -56 119 l0 30 115 0 c128 0 126 -1 96 67 -31 66 -104 91 -176
59z m83 -33 c11 -10 23 -28 27 -40 6 -22 4 -23 -69 -23 -85 0 -96 11 -51 55
28 29 65 32 93 8z"/>
<path d="M6073 1028 c-29 -11 -50 -24 -48 -29 3 -4 12 -6 20 -3 7 3 18 -3 24
-15 12 -22 15 -230 3 -246 -4 -6 -18 -16 -32 -22 -21 -10 -8 -12 75 -12 83 1
95 2 70 11 -16 6 -33 16 -37 22 -4 6 -8 57 -8 113 0 93 2 104 24 130 22 25 26
26 49 14 36 -19 59 -8 55 26 -5 42 -46 43 -92 3 l-36 -32 0 31 c0 36 2 35 -67
9z"/>
<path d="M4055 1028 c11 -6 22 -12 23 -14 2 -1 34 -73 70 -158 37 -86 71 -157
76 -159 5 -1 38 68 72 153 36 88 72 163 85 173 21 17 20 17 -42 16 -49 0 -59
-2 -41 -9 12 -5 22 -15 22 -22 0 -25 -74 -208 -81 -201 -9 9 -79 191 -79 204
0 5 10 14 23 19 16 6 -2 9 -63 9 -68 0 -81 -2 -65 -11z"/>
<path d="M171 14 c0 -11 3 -14 6 -6 3 7 2 16 -1 19 -3 4 -6 -2 -5 -13z"/>
</g>
</svg>
