<?xml version="1.0" standalone="no"?>
<!DOCTYPE svg PUBLIC "-//W3C//DTD SVG 20010904//EN"
 "http://www.w3.org/TR/2001/REC-SVG-20010904/DTD/svg10.dtd">
<svg version="1.0" xmlns="http://www.w3.org/2000/svg"
 width="908.000000pt" height="174.000000pt" viewBox="0 0 908.000000 174.000000"
 preserveAspectRatio="xMidYMid meet">

<g transform="translate(0.000000,174.000000) scale(0.100000,-0.100000)"
fill="#000000" stroke="none">
<path d="M7794 1675 c5 -23 3 -35 -4 -35 -12 0 -49 -39 -50 -51 0 -11 47 -17
62 -8 11 6 15 -1 16 -28 2 -20 5 -40 8 -45 3 -5 0 -15 -6 -23 -10 -12 -10 -15
0 -15 8 0 9 -10 5 -30 -8 -35 4 -39 30 -10 14 16 20 17 26 8 8 -13 12 -14 52
-17 22 -2 22 -2 2 -17 -11 -8 -25 -12 -32 -10 -7 3 -13 1 -13 -4 0 -6 -7 -10
-15 -10 -8 0 -15 -6 -15 -14 0 -8 -8 -17 -17 -20 -15 -6 -15 -8 -3 -17 12 -8
11 -9 -5 -7 -11 2 -20 10 -21 18 -3 43 -4 46 -15 28 -5 -10 -17 -18 -24 -18
-18 0 -19 -12 -4 -27 7 -7 9 -20 5 -30 -6 -15 -8 -15 -16 -3 -7 10 -10 11 -10
3 0 -7 -9 -22 -20 -33 -11 -11 -15 -20 -8 -20 6 0 4 -8 -6 -19 -10 -11 -15
-25 -11 -30 10 -17 -20 -41 -50 -41 -23 0 -24 2 -15 20 6 11 8 25 5 30 -3 6 2
10 12 10 17 1 17 1 1 14 -10 7 -18 22 -18 33 0 15 -7 20 -30 20 -18 0 -30 -6
-33 -16 -2 -11 -8 -7 -20 14 -9 17 -16 26 -17 21 0 -5 -7 -3 -15 4 -13 11 -20
9 -41 -11 -20 -19 -27 -21 -34 -9 -4 7 -16 15 -25 16 -9 1 -25 10 -34 18 -10
9 -23 16 -29 16 -15 0 -15 6 -1 31 8 16 14 18 24 9 10 -8 16 -7 24 7 10 17 10
17 11 -2 0 -12 5 -26 12 -33 9 -9 8 -12 -7 -12 -18 -1 -19 -1 -3 -11 11 -6 25
-6 35 -1 10 4 36 10 57 11 40 3 86 31 51 31 -9 0 -24 7 -33 16 -14 15 -17 15
-29 -2 -12 -16 -16 -14 -59 30 -33 35 -43 51 -35 59 14 14 14 57 1 57 -5 0
-18 -9 -29 -19 -18 -18 -19 -18 -41 3 l-21 21 6 -27 c5 -18 3 -28 -4 -28 -6 0
-11 -4 -11 -10 0 -5 6 -10 14 -10 23 0 27 -30 9 -60 -15 -27 -18 -27 -40 -13
-13 9 -23 11 -23 5 0 -6 5 -14 11 -18 8 -4 7 -9 -2 -15 -9 -5 -5 -10 14 -14
14 -4 31 -13 37 -20 6 -7 19 -11 29 -8 11 3 21 -2 24 -11 4 -10 1 -16 -7 -16
-23 0 -27 -27 -5 -33 10 -3 19 -10 19 -17 0 -6 -5 -8 -12 -4 -6 4 -28 10 -48
14 -42 8 -62 -8 -67 -52 -3 -25 0 -28 17 -23 23 7 25 2 10 -26 -13 -24 -37
-25 -43 -1 -3 10 -5 6 -6 -10 -1 -28 -11 -33 -55 -30 -12 2 -16 -3 -13 -13 7
-17 -9 -30 -18 -15 -11 17 -24 11 -31 -15 -4 -17 -13 -25 -28 -25 -12 0 -27
-5 -34 -12 -9 -9 -13 -7 -18 5 -3 9 -16 17 -29 17 -13 0 -26 9 -33 23 -8 17
-11 18 -11 5 -1 -10 -5 -18 -10 -18 -17 0 -19 -28 -5 -55 14 -27 11 -45 -7
-45 -5 0 -9 6 -9 13 -1 18 -64 44 -86 36 -17 -6 -17 -8 -3 -14 9 -3 20 -20 23
-37 6 -30 7 -31 26 -13 11 10 23 15 27 11 5 -4 0 -12 -10 -17 -9 -6 -17 -19
-17 -31 0 -14 -5 -18 -15 -14 -13 5 -35 -3 -65 -22 -2 -2 2 -7 10 -12 19 -12
5 -25 -28 -26 -42 -2 -72 -15 -72 -30 0 -8 -6 -11 -17 -7 -11 4 -14 3 -9 -5
10 -16 -11 -52 -30 -52 -8 0 -12 -5 -9 -11 4 -6 -2 -17 -14 -25 -12 -8 -21
-21 -21 -29 0 -18 42 -15 56 4 9 11 14 12 25 2 8 -6 31 -27 53 -45 24 -21 45
-32 57 -29 19 5 27 33 9 33 -5 0 -10 9 -10 20 0 22 -10 26 -27 9 -7 -7 -12 -6
-16 5 -4 9 -1 16 6 16 7 0 4 5 -5 11 -26 15 -22 29 8 29 14 0 23 -4 19 -10 -3
-5 3 -18 14 -29 17 -17 26 -19 46 -11 24 9 35 30 15 30 -14 0 -13 37 1 46 7 4
25 8 40 10 28 4 28 3 25 -47 -3 -34 1 -54 11 -64 8 -8 11 -15 6 -15 -4 0 -14
-9 -21 -21 -12 -19 -11 -19 8 -9 11 6 20 8 20 4 0 -21 56 58 57 82 2 29 2 29
-15 9 -9 -11 -25 -19 -34 -17 -30 6 -18 35 20 46 26 8 29 24 6 33 -11 4 -14
13 -9 30 4 16 2 22 -5 18 -15 -9 -12 14 3 29 20 21 49 -3 35 -29 -9 -15 -8
-17 6 -12 10 4 21 7 26 7 8 0 23 34 25 55 0 6 6 11 13 11 6 1 15 3 20 4 4 1
19 1 35 0 17 -1 29 4 33 14 3 9 10 13 15 10 6 -3 16 0 24 6 12 10 15 9 15 -4
0 -10 5 -26 11 -37 10 -20 11 -20 24 -3 7 10 11 24 8 31 -4 10 4 11 28 7 32
-5 33 -4 15 10 -10 8 -15 19 -12 25 4 6 -9 11 -31 13 -32 2 -37 6 -35 23 5 27
10 31 24 17 17 -17 33 -15 18 3 -17 20 4 20 24 -1 9 -8 16 -21 16 -29 0 -7 6
-16 13 -18 9 -4 9 -6 -1 -6 -9 -1 -8 -8 4 -26 22 -33 28 -106 9 -99 -7 3 -16
1 -20 -5 -3 -6 -1 -11 5 -11 6 0 9 -4 5 -9 -3 -6 2 -14 11 -19 12 -6 15 -17
11 -32 -4 -17 -3 -20 6 -11 6 6 19 11 29 11 23 0 23 18 1 28 -14 5 -9 8 17 12
45 8 85 -18 93 -60 5 -21 11 -28 22 -24 10 4 15 0 15 -15 0 -12 -6 -21 -12
-22 -7 0 -4 -4 8 -9 13 -5 24 -21 27 -39 6 -29 37 -46 37 -20 0 5 5 7 10 4 6
-3 10 5 10 19 0 14 11 37 24 52 22 26 24 27 40 11 17 -17 29 -21 54 -18 7 1
11 -2 10 -6 -5 -18 14 -53 28 -53 9 0 22 -7 30 -15 13 -13 13 -17 -2 -40 -15
-24 -43 -33 -57 -18 -4 3 -1 11 6 17 7 6 10 10 8 9 -2 -2 -10 2 -17 7 -13 12
-36 10 -45 -4 -14 -19 -28 5 -18 31 5 14 8 26 7 27 -2 0 -13 6 -25 13 -19 11
-21 10 -18 -7 2 -11 7 -25 10 -30 7 -11 -10 -47 -19 -42 -20 8 -27 0 -14 -15
9 -10 13 -24 11 -31 -4 -9 1 -10 22 -2 36 14 52 13 38 -1 -10 -10 -8 -65 3
-78 7 -8 44 32 44 46 0 12 4 11 22 -1 34 -24 56 -21 33 4 -18 19 -17 21 5 40
25 22 40 26 40 10 0 -7 6 -7 20 0 29 16 25 3 -9 -26 -16 -13 -31 -33 -34 -44
-5 -21 7 -28 18 -10 3 6 17 10 31 10 20 0 24 4 19 19 -3 11 -1 22 5 26 6 3 7
12 3 18 -3 7 3 4 15 -7 20 -17 22 -17 28 -2 3 9 1 23 -6 31 -14 17 1 20 17 4
14 -14 48 14 38 31 -3 5 -2 10 3 10 12 0 20 -21 15 -37 -3 -7 -10 -13 -18 -13
-7 0 -18 -6 -24 -14 -9 -10 -3 -21 23 -49 38 -40 39 -77 4 -77 -20 0 -20 -1
-3 -26 l17 -27 -29 6 c-46 9 -58 -6 -23 -31 27 -20 30 -21 39 -5 8 14 12 15
25 4 9 -7 16 -20 16 -27 0 -18 15 -18 33 0 9 9 19 11 28 5 21 -13 33 -11 20 4
-7 10 -7 17 0 24 8 8 20 6 43 -8 17 -10 39 -19 48 -19 9 0 24 -10 33 -22 12
-16 19 -19 22 -10 3 6 11 12 19 12 10 0 13 -7 8 -25 -6 -26 -2 -29 31 -16 15
6 26 2 42 -15 14 -15 23 -19 26 -11 3 9 7 9 18 1 10 -8 22 -9 39 -2 25 10 25
10 3 20 -12 6 -23 22 -25 39 -5 35 6 59 16 33 6 -16 8 -16 21 2 11 16 11 21
-1 35 -8 8 -14 20 -14 26 0 6 -12 13 -26 16 -22 4 -25 2 -20 -17 3 -12 -1 -32
-10 -44 -14 -20 -14 -22 1 -22 9 0 13 -4 10 -10 -3 -5 -10 -10 -15 -10 -10 0
-25 39 -22 56 1 6 -5 17 -13 24 -22 19 -18 27 18 35 28 7 29 9 10 12 -15 3
-23 12 -23 26 0 16 3 18 12 9 9 -9 17 -7 36 11 22 20 24 21 33 4 6 -9 15 -15
20 -12 5 4 7 11 4 16 -8 11 15 12 34 0 8 -5 12 -18 8 -30 -6 -22 7 -38 18 -21
8 12 16 12 34 1 21 -13 -3 -41 -35 -41 -21 0 -23 -3 -14 -26 8 -21 6 -29 -12
-43 l-21 -18 27 -7 c15 -4 31 -4 36 -1 6 4 10 -4 10 -16 0 -16 3 -19 13 -11
16 14 57 4 75 -17 12 -14 13 -14 8 1 -6 20 25 50 31 30 3 -6 9 -10 14 -6 5 3
9 0 9 -5 0 -6 7 -11 15 -11 7 0 18 -8 24 -17 9 -17 10 -16 18 4 7 18 11 20 25
9 16 -12 16 -14 -7 -26 -29 -16 -32 -28 -7 -37 9 -4 22 -14 29 -22 10 -14 12
-12 18 12 5 19 12 26 22 23 8 -3 24 -1 36 5 l21 12 -23 18 c-22 18 -22 18 -1
29 11 6 20 8 20 4 0 -3 7 -1 15 6 12 10 15 9 15 -8 0 -15 5 -19 20 -15 11 3
20 10 20 17 0 6 5 3 11 -6 12 -22 33 -24 25 -3 -3 8 -1 15 5 15 6 0 8 4 5 9
-3 5 3 11 14 14 16 4 20 0 20 -18 0 -13 8 -31 18 -41 16 -17 17 -13 20 86 2
76 -1 105 -10 111 -17 11 -22 -5 -9 -29 9 -16 5 -20 -24 -30 -20 -6 -35 -6
-35 -1 0 5 -7 9 -15 9 -8 0 -15 5 -15 10 0 6 -9 10 -21 10 -11 0 -17 4 -14 10
3 6 -1 7 -9 4 -10 -4 -19 1 -23 12 -10 27 -36 54 -50 54 -10 0 -11 5 -3 20 26
53 27 56 14 68 -18 16 -24 15 -25 -5 0 -11 -3 -13 -6 -5 -2 6 -11 12 -19 12
-15 0 -18 18 -6 35 4 6 30 9 58 7 l52 -4 -5 -39 c-5 -35 -4 -39 13 -33 11 4
25 14 32 22 13 17 13 16 16 -28 1 -8 8 -15 16 -15 8 -1 14 -6 12 -13 -3 -17
13 -15 28 3 7 8 21 15 31 15 15 0 19 7 19 31 0 19 -4 28 -11 23 -6 -3 -14 -3
-18 2 -12 18 -61 44 -61 34 0 -23 -18 1 -24 31 -3 18 -14 38 -24 45 -23 18
-31 17 -26 -3 3 -11 -3 -23 -16 -31 -12 -7 -20 -8 -20 -2 0 5 -7 10 -16 10
-24 0 -12 35 14 38 12 2 20 7 17 12 -3 5 2 21 11 35 20 31 15 39 -19 26 -23
-9 -28 -7 -39 16 -7 14 -23 32 -34 40 -21 14 -22 13 -22 -21 0 -20 5 -39 10
-43 6 -3 -4 -11 -23 -17 -37 -12 -42 -29 -9 -34 22 -4 28 -22 8 -22 -9 0 -9
-3 1 -9 12 -8 11 -13 -10 -30 -13 -11 -18 -20 -11 -21 9 0 10 -4 0 -19 -6 -10
-17 -17 -24 -14 -16 6 -30 -17 -16 -26 8 -4 8 -11 1 -21 -8 -12 -12 -12 -16
-2 -2 7 -11 19 -19 26 -18 19 -18 26 2 26 8 0 12 5 9 10 -3 6 -1 10 4 10 18 0
12 21 -10 41 -18 16 -19 20 -6 24 8 4 14 16 13 29 -1 18 -7 22 -33 23 -18 1
-37 -5 -44 -13 -7 -9 -20 -11 -36 -8 -18 5 -24 3 -22 -7 2 -8 -2 -24 -9 -36
-11 -20 -10 -23 3 -23 9 0 14 -4 10 -9 -3 -5 -1 -12 5 -16 7 -4 7 -12 0 -26
-7 -13 -7 -19 0 -19 5 0 10 -14 10 -31 0 -26 3 -29 20 -24 15 5 20 2 20 -13 0
-25 -25 -46 -46 -38 -11 4 -14 13 -11 27 3 12 0 22 -8 25 -7 3 -11 14 -8 25 8
28 -26 13 -38 -17 -12 -33 -47 -32 -45 1 0 14 7 25 14 25 6 0 12 4 12 8 0 14
-23 32 -42 32 -10 0 -18 5 -18 11 0 8 -4 8 -14 0 -10 -8 -16 -9 -21 -1 -3 6
-10 8 -15 5 -4 -3 -13 2 -20 10 -7 8 -16 12 -21 10 -12 -8 -49 18 -49 34 0 7
7 19 17 26 16 12 9 40 -8 30 -5 -4 -9 4 -9 16 0 18 -2 19 -15 9 -16 -13 -21
-75 -7 -84 11 -7 9 -71 -3 -73 -5 -1 -10 7 -9 17 0 11 -5 20 -12 20 -6 0 -15
7 -18 16 -5 13 -9 14 -21 4 -12 -10 -15 -10 -15 2 0 8 -9 23 -21 34 -17 15
-18 20 -6 29 14 10 17 16 17 33 0 5 16 9 36 10 45 2 54 10 31 26 -21 16 -22
27 -2 20 9 -4 15 0 15 9 0 9 10 28 23 44 17 21 21 36 17 62 l-5 34 -13 -25
c-10 -17 -22 -25 -42 -25 -19 0 -26 4 -23 14 3 7 0 13 -6 13 -6 0 -17 15 -25
33 l-14 32 -12 -33 c-9 -23 -17 -31 -28 -27 -8 3 -30 1 -49 -6 l-34 -11 25
-19 c13 -10 31 -19 40 -19 9 0 16 -4 16 -9 0 -18 -42 -61 -60 -61 -21 0 -45
-34 -35 -50 3 -6 -3 -10 -14 -10 -16 0 -21 -6 -21 -25 0 -15 -5 -25 -12 -23
-24 4 -57 -13 -52 -27 3 -7 1 -16 -4 -19 -5 -3 -12 6 -15 19 -3 17 1 29 12 35
9 5 12 10 8 10 -4 0 -3 9 3 20 9 17 8 20 -9 20 -11 0 -21 6 -24 13 -3 10 -9
10 -26 0 -11 -7 -30 -13 -40 -13 -11 0 -23 -4 -26 -10 -9 -15 -45 -12 -51 5
-4 8 -15 15 -25 15 -11 0 -16 -5 -13 -13 3 -8 -2 -20 -11 -27 -10 -8 -15 -9
-15 -1 0 6 5 11 10 11 7 0 7 6 0 19 -17 33 -13 53 10 46 14 -5 20 -2 20 9 0 9
5 16 11 16 5 0 7 5 4 11 -4 6 -20 7 -38 3 -27 -6 -30 -4 -20 8 10 11 8 21 -8
47 -10 17 -24 29 -29 26 -6 -4 -10 10 -10 34 0 30 4 41 15 41 9 0 15 -9 15
-22 0 -13 5 -30 10 -38 9 -13 11 -13 20 0 5 8 10 21 10 28 0 10 5 10 21 1 17
-9 20 -17 15 -41 -6 -29 -5 -30 22 -23 15 3 29 11 31 17 2 5 16 -5 31 -23 l27
-33 -5 32 c-3 23 0 32 9 32 9 1 5 8 -9 20 -12 10 -27 31 -32 47 -8 22 -17 28
-43 29 -17 1 -35 -3 -39 -9 -4 -8 -15 -7 -35 3 -15 7 -32 14 -36 14 -15 2 -36
50 -36 81 -1 38 13 64 22 41 3 -8 1 -18 -5 -22 -7 -4 -6 -9 3 -15 9 -5 20 -1
32 12 10 10 22 19 27 19 6 0 10 6 10 13 0 7 7 22 16 33 14 18 15 17 10 -17 -7
-39 -1 -50 20 -42 9 3 11 14 7 36 -5 26 -4 29 11 24 10 -4 19 -7 21 -7 2 0 -2
-13 -8 -29 -6 -16 -22 -35 -36 -42 -16 -7 -21 -13 -14 -16 8 -3 11 -14 7 -29
-8 -30 9 -32 29 -3 9 13 17 16 22 10 7 -13 65 -15 65 -3 0 5 -8 17 -19 28 -15
17 -16 23 -6 37 8 12 19 15 31 10 17 -6 17 -5 5 10 -7 9 -10 17 -5 17 5 1 -6
7 -23 15 -39 17 -43 41 -8 47 17 4 29 -1 38 -16 14 -20 15 -19 22 21 3 23 4
46 1 52 -3 5 1 11 9 15 8 3 15 0 15 -6 0 -25 20 9 24 40 3 32 -2 36 -41 35 -7
-1 -13 6 -13 14 0 11 6 12 23 7 12 -5 35 -7 50 -6 21 1 28 -3 26 -16 -1 -9 -1
-26 0 -37 2 -19 3 -19 18 3 8 12 24 22 34 22 16 0 17 4 7 31 -8 22 -7 37 1 55
14 32 14 34 -3 28 -8 -3 -21 5 -29 17 -15 20 -14 25 1 53 9 17 15 37 13 44 -1
10 7 11 33 6 38 -7 47 4 22 26 -8 6 -12 18 -9 26 4 11 -5 14 -37 14 -32 0 -41
3 -37 14 3 8 -1 17 -9 20 -9 3 -12 11 -8 17 5 9 -1 10 -20 5 -14 -3 -35 -2
-46 4 -16 9 -25 7 -42 -10 l-22 -20 27 0 c22 0 27 -5 33 -35 6 -33 16 -40 50
-36 6 1 12 -11 12 -26 1 -16 3 -54 4 -85 3 -54 1 -58 -19 -58 -13 0 -27 10
-34 23 -7 12 -17 25 -22 29 -6 3 2 17 19 33 l29 27 -33 -6 c-20 -3 -31 -2 -27
4 3 5 -3 15 -15 22 -22 14 -26 38 -8 56 9 9 8 12 -5 12 -9 0 -17 -5 -17 -11 0
-5 -5 -7 -11 -4 -6 4 -7 19 -3 37 5 25 3 30 -8 25 -8 -3 -20 4 -26 14 -20 32
-35 23 -28 -16z m-444 -504 c0 -6 -4 -13 -10 -16 -5 -3 -10 1 -10 9 0 9 5 16
10 16 6 0 10 -4 10 -9z m171 -127 c15 -19 26 -18 33 4 2 9 4 4 3 -11 -1 -19
-11 -34 -30 -45 -27 -16 -29 -16 -38 1 -6 9 -21 17 -34 17 -13 0 -27 5 -31 11
-4 8 -9 8 -17 0 -17 -17 -24 -13 -23 11 1 15 9 24 25 28 36 8 99 0 112 -16z
m-91 -54 c0 -5 -5 -10 -11 -10 -5 0 -7 5 -4 10 3 6 8 10 11 10 2 0 4 -4 4 -10z
m200 -45 c0 -30 -3 -33 -26 -30 -37 4 -47 17 -35 47 8 20 15 25 35 21 22 -5
26 -11 26 -38z m150 10 c7 -8 8 -15 2 -15 -5 0 -15 7 -22 15 -7 8 -8 15 -2 15
5 0 15 -7 22 -15z m-640 -45 c0 -5 -7 -10 -15 -10 -8 0 -15 5 -15 10 0 6 7 10
15 10 8 0 15 -4 15 -10z m360 -50 c0 -5 -7 -10 -16 -10 -8 0 -12 5 -9 10 3 6
10 10 16 10 5 0 9 -4 9 -10z m-81 -29 c-15 -5 -22 6 -14 19 6 9 10 9 16 -1 5
-8 4 -15 -2 -18z m781 -11 c0 -11 -2 -20 -4 -20 -2 0 -6 9 -9 20 -3 11 -1 20
4 20 5 0 9 -9 9 -20z m-1380 -22 c0 -7 -5 -20 -10 -28 -8 -12 -10 -9 -10 13 0
15 5 27 10 27 6 0 10 -6 10 -12z m786 -15 c19 -26 17 -35 -6 -23 -11 6 -20 17
-20 25 0 20 10 19 26 -2z m559 -23 c3 -6 -2 -13 -12 -17 -10 -4 -21 -11 -24
-16 -4 -5 -9 3 -11 17 -4 22 -2 26 18 26 12 0 26 -5 29 -10z m-548 -42 c-3 -8
-6 -5 -6 6 -1 11 2 17 5 13 3 -3 4 -12 1 -19z m458 12 c3 -5 -1 -10 -9 -10 -9
0 -16 5 -16 10 0 6 4 10 9 10 6 0 13 -4 16 -10z m-425 -10 c0 -5 -5 -10 -11
-10 -5 0 -7 5 -4 10 3 6 8 10 11 10 2 0 4 -4 4 -10z m37 -22 c-3 -8 -6 -5 -6
6 -1 11 2 17 5 13 3 -3 4 -12 1 -19z m-77 -8 c0 -5 -4 -10 -10 -10 -5 0 -10 5
-10 10 0 6 5 10 10 10 6 0 10 -4 10 -10z m170 -20 c0 -5 -6 -10 -14 -10 -8 0
-18 5 -21 10 -3 6 3 10 14 10 12 0 21 -4 21 -10z m382 -57 c25 -23 23 -33 -9
-33 -37 0 -57 14 -50 34 8 21 36 20 59 -1z m-124 -11 c2 -7 -3 -12 -10 -12 -8
0 -15 7 -15 15 0 18 19 15 25 -3z m202 -38 c0 -8 -5 -12 -10 -9 -6 4 -8 11 -5
16 9 14 15 11 15 -7z m-315 -4 c-3 -5 -10 -10 -16 -10 -5 0 -9 5 -9 10 0 6 7
10 16 10 8 0 12 -4 9 -10z m391 -16 c-3 -9 -6 -20 -6 -25 0 -5 -4 -9 -9 -9 -4
0 -6 11 -3 25 2 14 9 25 14 25 6 0 7 -7 4 -16z m-56 -41 c0 -23 -25 -9 -26 15
-1 18 2 20 12 11 8 -6 14 -18 14 -26z m548 -1 c20 -20 37 -96 26 -113 -4 -6
-11 -6 -19 1 -11 9 -15 4 -20 -24 -5 -24 -11 -33 -21 -29 -10 4 -11 9 -5 17 7
8 4 15 -8 23 -24 15 -59 6 -66 -18 -4 -11 -11 -17 -16 -14 -5 4 -5 14 1 25 14
26 13 28 -15 23 -14 -3 -31 1 -40 11 -15 15 -14 16 8 16 13 0 26 3 30 6 9 10
-4 35 -15 28 -6 -4 -2 6 8 20 12 20 23 26 38 22 12 -3 30 2 40 10 27 19 52 18
74 -4z m-513 -22 c3 -5 1 -10 -4 -10 -6 0 -11 5 -11 10 0 6 2 10 4 10 3 0 8
-4 11 -10z m-165 -19 c0 -5 -4 -11 -9 -13 -17 -6 8 -48 29 -48 11 0 20 -4 20
-8 0 -16 -24 -32 -48 -32 -17 0 -23 -4 -18 -15 4 -10 -1 -15 -15 -15 -14 0
-19 5 -16 14 3 7 1 18 -5 24 -7 7 -3 17 11 31 12 12 18 27 14 37 -3 9 0 20 8
25 18 11 29 11 29 0z m100 -111 c0 -5 -4 -10 -10 -10 -5 0 -10 5 -10 10 0 6 5
10 10 10 6 0 10 -4 10 -10z m-190 -30 c0 -5 -2 -10 -4 -10 -3 0 -8 5 -11 10
-3 6 -1 10 4 10 6 0 11 -4 11 -10z m630 -10 c0 -11 -7 -20 -16 -20 -9 0 -12 5
-8 12 5 8 2 9 -9 5 -11 -4 -17 -1 -17 8 0 9 10 15 25 15 18 0 25 -5 25 -20z
m-353 -27 c-8 -7 -37 9 -31 19 3 5 12 4 20 -3 8 -6 13 -14 11 -16z"/>
<path d="M8724 435 c-2 -22 1 -25 20 -19 28 8 28 8 20 28 -10 26 -39 20 -40
-9z"/>
<path d="M7575 1600 c-3 -11 -15 -20 -26 -20 -23 0 -24 -6 -4 -27 11 -11 13
-19 5 -28 -6 -7 -8 -20 -5 -29 17 -53 16 -52 31 -23 8 15 19 25 24 22 4 -3 20
-1 35 5 22 8 25 13 16 24 -14 17 -11 37 9 53 13 11 13 12 -2 13 -10 0 -18 5
-18 11 0 6 -7 9 -15 6 -8 -4 -17 -2 -20 3 -10 16 -23 11 -30 -10z"/>
<path d="M7238 1543 c-2 -16 -8 -27 -16 -25 -7 1 -27 -5 -45 -15 l-32 -17 37
-15 c34 -14 36 -18 31 -51 -5 -34 -5 -35 11 -13 10 13 23 20 31 17 12 -5 15 2
15 29 0 20 5 39 10 42 6 3 10 13 10 21 0 8 -4 13 -9 10 -5 -3 -12 5 -15 19 -8
33 -24 32 -28 -2z"/>
<path d="M8343 1408 c5 -17 3 -28 -5 -30 -9 -3 -3 -16 15 -37 15 -18 27 -42
27 -54 0 -17 2 -19 9 -8 8 12 12 12 25 2 26 -22 40 -8 18 19 -16 19 -17 27 -7
35 15 12 29 65 18 65 -5 0 -20 -6 -35 -14 -25 -13 -28 -13 -33 4 -3 10 -13 24
-22 32 -15 12 -16 10 -10 -14z"/>
<path d="M7684 1407 c-3 -8 -17 -11 -39 -9 -40 5 -46 -9 -14 -31 17 -12 19
-19 10 -34 -9 -17 -6 -20 20 -20 17 0 29 6 29 13 0 7 10 22 22 34 12 11 16 20
10 20 -7 0 -12 9 -12 20 0 22 -18 27 -26 7z"/>
<path d="M8078 1393 c7 -3 16 -2 19 1 4 3 -2 6 -13 5 -11 0 -14 -3 -6 -6z"/>
<path d="M7008 1305 c-26 -23 -43 -55 -28 -55 5 0 11 4 14 9 4 5 20 5 41 -1
32 -10 33 -12 19 -32 -18 -26 -18 -37 1 -30 9 4 15 0 15 -9 0 -8 -11 -18 -25
-21 -28 -7 -33 -24 -9 -33 11 -4 13 -14 9 -37 -5 -25 -4 -28 5 -13 6 9 15 15
19 12 9 -5 22 43 23 84 0 14 7 25 19 28 10 3 19 10 19 16 0 5 9 2 20 -8 12
-10 19 -24 17 -30 -3 -6 6 -16 19 -22 20 -9 26 -8 34 7 14 27 13 30 -14 30
-13 0 -26 7 -30 15 -3 10 1 15 12 15 12 0 8 8 -16 28 -18 15 -32 35 -32 44 0
9 -4 20 -10 23 -5 3 -10 1 -10 -5 0 -7 -6 -8 -19 0 -28 15 -65 9 -93 -15z m63
-8 c-13 -13 -26 -3 -16 12 3 6 11 8 17 5 6 -4 6 -10 -1 -17z"/>
<path d="M8035 1300 c-4 -12 0 -26 9 -36 20 -20 21 -35 1 -27 -9 3 -24 -2 -35
-12 -10 -9 -24 -14 -29 -10 -6 3 -11 1 -11 -5 0 -6 -5 -8 -11 -4 -8 4 -9 -1
-4 -16 6 -18 4 -22 -8 -17 -20 7 -28 -15 -20 -53 5 -30 -1 -35 -34 -31 -15 2
-17 -15 -4 -23 5 -3 7 -15 4 -26 -4 -15 0 -20 13 -21 11 0 30 -3 44 -5 25 -5
80 13 80 26 0 4 10 12 23 18 17 8 18 11 5 11 -10 1 -18 4 -18 7 0 4 8 13 18
20 16 12 16 14 1 26 -22 18 -28 39 -18 66 12 31 43 30 35 -1 -4 -19 0 -26 20
-35 14 -7 31 -12 39 -12 8 0 15 -4 15 -10 0 -17 25 -11 38 10 6 11 18 17 26
14 11 -4 14 1 12 22 -2 17 -11 30 -24 35 -17 7 -21 16 -19 48 2 50 -19 77 -29
37 -7 -28 -24 -36 -24 -11 0 18 -46 21 -53 3 -3 -7 -6 -3 -6 10 -1 27 -27 29
-36 2z m-75 -260 c0 -5 -5 -10 -11 -10 -5 0 -7 5 -4 10 3 6 8 10 11 10 2 0 4
-4 4 -10z"/>
<path d="M7670 1290 c0 -5 5 -10 10 -10 6 0 10 5 10 10 0 6 -4 10 -10 10 -5 0
-10 -4 -10 -10z"/>
<path d="M6714 1246 c4 -15 1 -26 -7 -29 -8 -3 -5 -12 11 -29 12 -13 22 -34
22 -47 0 -13 4 -19 10 -16 6 4 18 1 26 -6 20 -17 31 -2 16 22 -10 16 -10 22 2
34 18 18 28 19 24 3 -1 -7 2 -23 6 -36 6 -19 10 -21 22 -11 8 6 14 18 14 25 0
12 5 12 30 -1 26 -13 29 -14 24 0 -4 8 -11 15 -18 15 -6 0 -5 4 3 9 12 8 8 11
-15 17 -16 4 -36 12 -44 18 -21 17 -71 20 -80 5 -6 -8 -13 -2 -24 20 -20 37
-31 41 -22 7z"/>
<path d="M2953 1201 c-51 -20 -63 -31 -36 -31 27 0 33 -18 33 -90 l0 -59 -27
15 c-54 28 -112 15 -159 -35 -72 -76 -72 -214 -1 -280 37 -34 106 -40 152 -13
l35 21 0 -20 c0 -22 8 -21 78 8 l35 15 -24 12 -24 12 -3 232 c-1 128 -6 232
-10 231 -4 -1 -26 -9 -49 -18z m-32 -200 c28 -28 29 -33 29 -126 0 -109 -8
-131 -50 -140 -69 -15 -120 47 -120 148 0 63 17 107 52 131 33 23 56 20 89
-13z"/>
<path d="M3613 1201 c-51 -20 -63 -31 -36 -31 27 0 33 -18 33 -90 l0 -59 -27
15 c-54 28 -112 15 -159 -35 -72 -76 -72 -214 -1 -280 37 -34 106 -40 152 -13
l35 21 0 -20 c0 -22 8 -21 78 8 l35 15 -24 12 -24 12 -3 232 c-1 128 -6 232
-10 231 -4 -1 -26 -9 -49 -18z m-32 -200 c28 -28 29 -33 29 -126 0 -109 -8
-131 -50 -140 -69 -15 -120 47 -120 148 0 63 17 107 52 131 33 23 56 20 89
-13z"/>
<path d="M4815 1215 c-5 -2 -30 -9 -55 -16 -44 -12 -45 -13 -15 -18 l30 -6 3
-222 2 -223 -32 -14 c-32 -14 -28 -14 67 -15 95 0 98 1 68 14 l-33 14 0 246
c0 248 -1 252 -35 240z"/>
<path d="M350 1191 c0 -5 14 -14 30 -20 l30 -10 0 -211 0 -212 -30 -11 c-16
-6 -30 -15 -30 -19 0 -4 47 -8 105 -8 100 0 134 10 80 24 -35 9 -45 41 -45
142 l0 84 68 0 c93 0 112 -7 119 -41 3 -16 11 -29 17 -29 7 0 11 29 12 85 1
65 -2 85 -13 85 -7 0 -13 -9 -13 -19 0 -35 -38 -51 -117 -51 l-73 0 0 79 c0
112 -1 111 85 111 108 0 136 -8 149 -42 16 -43 40 -37 32 10 -3 20 -6 43 -6
50 0 9 -47 12 -200 12 -112 0 -200 -4 -200 -9z"/>
<path d="M6688 1163 c7 -3 16 -2 19 1 4 3 -2 6 -13 5 -11 0 -14 -3 -6 -6z"/>
<path d="M8361 1144 c-9 -20 -15 -23 -24 -15 -8 6 -29 8 -50 4 -36 -5 -36 -6
-19 -29 9 -13 25 -24 35 -24 21 0 21 -4 1 -36 -20 -29 -14 -40 15 -25 13 8 22
8 26 1 9 -15 25 -2 25 20 0 10 12 28 27 40 18 14 23 24 16 28 -6 4 -15 20 -18
35 -9 34 -18 34 -34 1z"/>
<path d="M6570 1148 c0 -4 12 -15 26 -24 14 -10 21 -20 16 -23 -14 -9 -2 -61
13 -61 8 0 21 7 30 16 12 13 19 14 30 4 23 -19 18 -27 -20 -40 -38 -13 -43
-24 -21 -46 10 -9 13 -26 9 -49 -5 -33 -4 -35 24 -35 24 0 31 6 42 35 l12 35
18 -22 18 -22 7 37 c6 33 9 37 31 31 15 -4 25 -2 25 5 0 6 -4 11 -10 11 -5 0
-10 7 -10 15 0 9 -9 15 -25 15 -17 0 -28 7 -34 22 -5 15 -10 18 -15 9 -6 -9
-11 -9 -22 0 -11 9 -12 14 -3 20 8 4 1 12 -19 23 -17 9 -37 24 -44 34 -13 17
-78 25 -78 10z"/>
<path d="M1823 1073 c-29 -30 -53 -57 -53 -59 0 -2 9 -4 19 -4 18 0 20 -10 23
-139 3 -120 6 -142 22 -160 11 -12 30 -21 43 -21 31 0 79 25 86 45 8 18 5 18
-27 4 -48 -22 -56 -2 -56 142 l0 129 40 0 c29 0 40 4 40 15 0 11 -11 15 -39
15 l-40 0 -3 44 -3 44 -52 -55z"/>
<path d="M803 1028 c-29 -11 -50 -24 -48 -29 3 -4 12 -6 20 -3 7 3 18 -3 24
-15 12 -22 15 -230 3 -246 -4 -6 -18 -16 -32 -22 -21 -10 -8 -12 75 -11 73 0
92 2 71 8 -16 5 -33 15 -37 22 -5 7 -9 59 -9 115 0 94 2 104 24 130 22 25 27
26 45 16 29 -18 49 -16 60 5 13 25 -5 52 -34 52 -13 0 -40 -14 -60 -31 l-35
-31 0 31 c0 36 2 35 -67 9z"/>
<path d="M1108 1030 c-56 -30 -83 -82 -83 -160 0 -50 5 -73 22 -100 28 -46 89
-80 142 -80 136 0 217 169 138 289 -46 69 -142 91 -219 51z m105 -11 c43 -20
71 -85 71 -165 0 -101 -39 -153 -104 -139 -89 19 -122 256 -42 299 33 18 44
19 75 5z"/>
<path d="M1441 1036 c-50 -13 -65 -33 -29 -38 23 -3 23 -6 26 -135 l3 -132
-28 -15 c-27 -14 -24 -15 62 -15 72 1 85 3 63 11 l-28 10 0 123 c0 122 0 124
26 144 31 25 53 26 80 7 16 -12 20 -29 22 -111 5 -121 -2 -159 -31 -173 -18
-8 -5 -11 63 -11 68 0 81 2 65 11 -33 18 -35 28 -35 153 0 120 -8 152 -44 177
-22 15 -72 7 -108 -17 -20 -14 -39 -25 -42 -25 -4 0 -6 11 -6 25 0 28 2 28
-59 11z"/>
<path d="M2085 1038 c-64 -35 -95 -92 -95 -175 0 -96 45 -160 118 -170 53 -7
84 1 122 33 31 27 66 82 57 91 -3 2 -20 -12 -39 -32 -44 -48 -99 -58 -142 -24
-33 26 -56 75 -56 119 l0 30 115 0 c85 0 115 3 115 13 -1 32 -41 97 -69 111
-35 18 -97 20 -126 4z m83 -35 c11 -10 23 -28 27 -40 6 -22 4 -23 -69 -23 -85
0 -96 11 -51 55 28 29 65 32 93 8z"/>
<path d="M2366 1036 c-46 -14 -58 -33 -24 -38 23 -3 23 -6 26 -135 l3 -132
-28 -15 c-27 -14 -24 -15 62 -15 72 1 85 3 63 11 l-28 10 0 123 c0 122 0 124
26 144 31 25 53 26 80 7 16 -12 20 -29 22 -111 5 -121 -2 -159 -31 -173 -18
-8 -5 -11 63 -11 68 0 81 2 65 11 -33 18 -35 28 -35 155 0 116 -1 123 -26 152
-34 41 -77 41 -132 1 l-42 -30 0 30 c0 33 -5 34 -64 16z"/>
<path d="M3845 1038 c-64 -35 -95 -92 -95 -175 0 -96 45 -160 118 -170 53 -7
84 1 122 33 31 27 66 82 57 91 -3 2 -20 -12 -39 -32 -44 -48 -99 -58 -142 -24
-33 26 -56 75 -56 119 l0 30 115 0 c85 0 115 3 115 13 -1 32 -41 97 -69 111
-35 18 -97 20 -126 4z m83 -35 c11 -10 23 -28 27 -40 6 -22 4 -23 -69 -23 -85
0 -96 11 -51 55 28 29 65 32 93 8z"/>
<path d="M4480 1028 c-55 -38 -74 -71 -78 -142 -5 -77 9 -123 47 -160 30 -29
90 -43 135 -32 33 8 83 51 102 88 23 44 11 45 -28 3 -44 -48 -99 -58 -142 -24
-33 26 -56 75 -56 119 l0 30 116 0 116 0 -7 28 c-10 43 -39 86 -66 99 -39 20
-102 16 -139 -9z m98 -25 c11 -10 23 -28 27 -40 6 -22 4 -23 -69 -23 -85 0
-96 11 -51 55 28 29 65 32 93 8z"/>
<path d="M5028 1030 c-56 -30 -83 -82 -83 -160 0 -50 5 -73 22 -100 28 -46 89
-80 142 -80 136 0 217 169 138 289 -46 69 -142 91 -219 51z m105 -11 c43 -20
71 -85 71 -165 0 -101 -39 -153 -104 -139 -89 19 -122 256 -42 299 33 18 44
19 75 5z"/>
<path d="M5363 1031 c-51 -20 -63 -31 -36 -31 13 0 23 -8 27 -22 8 -30 8 -356
0 -386 -4 -12 -17 -25 -30 -28 -52 -13 -19 -24 71 -24 57 0 95 4 95 10 0 6 -9
10 -19 10 -37 0 -51 27 -51 96 l0 65 22 -15 c75 -53 185 19 210 136 31 150
-84 258 -195 183 l-37 -26 0 26 c0 29 -1 29 -57 6z m176 -47 c94 -66 47 -285
-56 -259 -56 13 -63 29 -63 135 0 80 3 100 18 112 35 31 68 35 101 12z"/>
<path d="M5795 1036 c-64 -29 -95 -84 -95 -172 0 -97 44 -161 118 -171 53 -7
84 1 122 33 31 27 66 82 57 91 -3 2 -20 -12 -39 -32 -44 -48 -99 -58 -142 -24
-33 26 -56 75 -56 119 l0 30 115 0 c128 0 126 -1 96 67 -31 66 -104 91 -176
59z m83 -33 c11 -10 23 -28 27 -40 6 -22 4 -23 -69 -23 -85 0 -96 11 -51 55
28 29 65 32 93 8z"/>
<path d="M6073 1028 c-29 -11 -50 -24 -48 -29 3 -4 12 -6 20 -3 7 3 18 -3 24
-15 12 -22 15 -230 3 -246 -4 -6 -18 -16 -32 -22 -21 -10 -8 -12 75 -12 83 1
95 2 70 11 -16 6 -33 16 -37 22 -4 6 -8 57 -8 113 0 94 2 104 24 130 22 25 27
26 45 16 43 -26 82 -2 61 36 -16 30 -54 26 -95 -10 l-35 -31 0 31 c0 36 2 35
-67 9z"/>
<path d="M4055 1028 c11 -6 22 -12 23 -14 2 -1 34 -73 70 -158 37 -86 71 -157
76 -159 5 -1 38 68 72 153 36 88 72 163 85 173 21 17 20 17 -42 16 -54 0 -60
-2 -41 -11 12 -6 22 -16 22 -22 0 -24 -74 -206 -81 -199 -9 9 -79 191 -79 204
0 5 10 14 23 19 16 6 -2 9 -63 9 -68 0 -81 -2 -65 -11z"/>
<path d="M8489 958 c-1 -7 -1 -18 0 -23 0 -6 -9 -15 -20 -20 -29 -13 -29 -29
-1 -33 16 -3 22 -10 23 -30 1 -17 3 -21 6 -9 2 9 8 17 13 17 17 0 15 75 -2 93
-12 11 -18 13 -19 5z"/>
<path d="M6786 914 c-21 -20 -20 -21 8 -21 15 0 26 6 29 18 6 23 -15 25 -37 3z"/>
<path d="M8019 857 c-1 -6 -1 -15 0 -19 0 -5 -6 -8 -15 -8 -9 0 -14 -6 -12
-12 3 -8 23 -13 46 -14 23 0 39 3 36 8 -3 4 0 8 5 8 21 0 10 15 -24 32 -25 13
-35 14 -36 5z"/>
<path d="M7803 835 c-23 -10 -32 -35 -13 -35 5 0 7 -7 4 -15 -10 -24 14 -17
32 9 21 33 8 56 -23 41z"/>
<path d="M8380 835 c-10 -12 -15 -13 -21 -3 -5 8 -10 2 -15 -18 -4 -16 -14
-37 -22 -46 -10 -12 -11 -18 -4 -18 7 0 12 -9 12 -20 0 -26 17 -26 25 0 4 11
12 20 18 18 7 -1 22 2 35 6 19 6 21 10 11 22 -6 8 -18 14 -25 14 -17 0 -17 5
-3 32 13 25 6 34 -11 13z"/>
<path d="M7120 785 c-7 -8 -21 -15 -31 -15 -11 0 -19 -4 -19 -9 0 -5 -3 -17
-7 -27 -5 -14 -2 -16 20 -10 15 3 27 3 27 -2 0 -5 12 -14 26 -21 27 -12 27
-12 21 23 -5 29 -2 35 16 41 l22 8 -22 4 c-13 2 -23 9 -23 14 0 14 -16 11 -30
-6z"/>
<path d="M7386 685 c-11 -8 -30 -15 -44 -15 -13 0 -21 -4 -17 -9 3 -5 -6 -22
-20 -36 -13 -15 -27 -35 -30 -44 -3 -11 -18 -16 -46 -18 -22 0 -43 -3 -46 -6
-6 -7 34 -47 48 -47 7 0 8 -7 4 -17 -4 -10 -10 -27 -13 -38 -5 -19 -5 -19 20
-3 19 12 28 14 37 5 8 -8 11 -4 11 15 0 15 12 40 26 57 20 24 22 31 10 31 -10
0 -16 9 -16 23 0 29 41 52 56 32 5 -7 20 -16 32 -20 22 -6 23 -4 20 25 -2 25
2 34 22 45 25 14 25 14 3 15 -13 0 -23 5 -23 10 0 14 -11 12 -34 -5z"/>
<path d="M6670 560 c0 -5 6 -10 14 -10 8 0 18 5 21 10 3 6 -3 10 -14 10 -12 0
-21 -4 -21 -10z"/>
<path d="M7490 466 c0 -9 -4 -16 -10 -16 -5 0 -10 -6 -10 -14 0 -7 -11 -25
-24 -39 l-24 -26 29 -13 c24 -10 29 -18 24 -35 -3 -13 -1 -23 5 -23 5 0 10 5
10 10 0 6 6 10 14 10 8 0 16 10 18 23 2 16 9 21 25 20 20 -2 21 1 16 34 -5 27
-2 39 11 48 15 11 14 13 -9 19 -14 4 -30 4 -36 0 -5 -3 -16 0 -24 6 -12 10
-15 9 -15 -4z"/>
<path d="M8460 385 c0 -8 5 -15 10 -15 6 0 10 7 10 15 0 8 -4 15 -10 15 -5 0
-10 -7 -10 -15z"/>
<path d="M6728 341 c-14 -12 -32 -21 -40 -21 -7 0 -19 -14 -25 -31 l-12 -31
27 18 c18 12 27 13 30 6 2 -7 15 -12 29 -12 20 0 24 4 21 23 -2 14 5 28 22 40
24 18 24 19 3 14 -12 -3 -23 -1 -25 5 -2 5 -15 0 -30 -11z"/>
<path d="M8201 197 c-1 -10 -8 -20 -16 -23 -10 -4 -13 -13 -10 -25 5 -15 1
-19 -21 -19 -15 0 -24 -3 -21 -7 4 -3 0 -15 -10 -25 -17 -19 -11 -22 22 -9 26
11 65 -29 65 -67 1 -26 1 -26 15 -8 8 11 29 21 47 23 41 4 42 6 20 29 -17 17
-17 21 -4 42 13 20 13 22 -3 16 -15 -6 -16 -4 -6 14 11 21 9 22 -22 22 -27 0
-35 5 -44 28 -7 18 -11 21 -12 9z"/>
<path d="M8915 180 c-3 -5 3 -10 15 -10 12 0 18 5 15 10 -3 6 -10 10 -15 10
-5 0 -12 -4 -15 -10z"/>
<path d="M8834 133 c1 -10 7 -29 15 -42 12 -21 11 -26 -4 -37 -16 -12 -15 -14
3 -32 28 -28 107 -25 140 5 l25 23 -32 0 c-18 0 -31 5 -31 13 -1 15 -56 77
-70 77 -5 0 -10 -6 -10 -12 0 -7 -5 -5 -11 5 -5 9 -14 17 -18 17 -5 0 -8 -8
-7 -17z"/>
<path d="M171 14 c0 -11 3 -14 6 -6 3 7 2 16 -1 19 -3 4 -6 -2 -5 -13z"/>
<path d="M8650 15 c-11 -13 -7 -15 28 -15 23 0 44 5 48 11 5 9 -1 10 -20 5
-15 -4 -26 -2 -26 4 0 15 -16 12 -30 -5z"/>
</g>
</svg>
